HIERARCHY
ROOT Hips
{
	OFFSET 0.00000 0.00000 0.00000
	CHANNELS 6 Xposition Yposition Zposition Zrotation Yrotation Xrotation 
	JOINT LHipJoint
	{
		OFFSET 0 0 0
		CHANNELS 3 Zrotation Yrotation Xrotation
		JOINT LeftHip
		{
			OFFSET 1.70593 -1.62653 0.87602
			CHANNELS 3 Zrotation Yrotation Xrotation
			JOINT LeftKnee
			{
				OFFSET 2.32330 -6.38322 0.00000
				CHANNELS 3 Zrotation Yrotation Xrotation
				JOINT LeftAnkle
				{
					OFFSET 2.45016 -6.73177 0.00000
					CHANNELS 3 Zrotation Yrotation Xrotation
					JOINT LeftToe
					{
						OFFSET 0.13029 -0.35798 1.96980
						CHANNELS 3 Zrotation Yrotation Xrotation
						End Site
						{
							OFFSET 0.00000 -0.00000 1.01270
						}
					}
				}
			}
		}
	}
	JOINT RHipJoint
	{
		OFFSET 0 0 0
		CHANNELS 3 Zrotation Yrotation Xrotation
		JOINT RightHip
		{
			OFFSET -1.80599 -1.62652 0.87602
			CHANNELS 3 Zrotation Yrotation Xrotation
			JOINT RightKnee
			{
				OFFSET -2.45375 -6.74162 0.00000
				CHANNELS 3 Zrotation Yrotation Xrotation
				JOINT RightAnkle
				{
					OFFSET -2.45828 -6.75406 0.00000
					CHANNELS 3 Zrotation Yrotation Xrotation
					JOINT RightToe
					{
						OFFSET -0.13801 -0.37917 1.88456
						CHANNELS 3 Zrotation Yrotation Xrotation
						End Site
						{
							OFFSET -0.00000 -0.00000 0.97281
						}
					}
				}
			}
		}
	}
	JOINT lowerback
	{
		OFFSET 0 0 0
		CHANNELS 3 Zrotation Yrotation Xrotation
		JOINT Chest
		{
			OFFSET 0.01003 2.00576 -0.14267
			CHANNELS 3 Zrotation Yrotation Xrotation
			JOINT Chest2
			{
				OFFSET 0.00908 2.01191 0.01660
				CHANNELS 3 Zrotation Yrotation Xrotation
				JOINT lowerneck
				{
					OFFSET 0 0 0
					CHANNELS 3 Zrotation Yrotation Xrotation
					JOINT Neck
					{
						OFFSET -0.05849 1.60301 0.18934
						CHANNELS 3 Zrotation Yrotation Xrotation
						JOINT Head
						{
							OFFSET 0.01775 1.59435 -0.07960
							CHANNELS 3 Zrotation Yrotation Xrotation
							End Site
							{
								OFFSET 0.01210 1.70732 -0.05248
							}
						}
					}
				}
				JOINT LeftCollar
				{
					OFFSET 0 0 0
					CHANNELS 3 Zrotation Yrotation Xrotation
					JOINT LeftShoulder
					{
						OFFSET 3.15315 1.26460 0.30667
CHANNELS 3 Zrotation Xrotation Yrotation
						JOINT LeftElbow
						{
OFFSET 0 -4.976940 -0.000000
CHANNELS 3 Zrotation Xrotation Yrotation
							JOINT LeftWrist
							{
OFFSET 0 -3.143910 -0.000000
CHANNELS 3 Zrotation Xrotation Yrotation
								JOINT lhand
								{
									OFFSET 0 0 0
CHANNELS 3 Zrotation Xrotation Yrotation
									JOINT LFingers
									{
OFFSET 0 -0.593580 -0.000000
CHANNELS 3 Zrotation Xrotation Yrotation
										End Site
										{
OFFSET 0 -0.478560 -0.000000
										}
									}
								}
								JOINT LThumb
								{
OFFSET 0 0.000000 0.000000
CHANNELS 3 Zrotation Xrotation Yrotation
									End Site
									{
OFFSET 0 -0.485870 0.485870
									}
								}
							}
						}
					}
				}
				JOINT RightCollar
				{
					OFFSET 0 0 0
					CHANNELS 3 Zrotation Yrotation Xrotation
					JOINT RightShoulder
					{
						OFFSET -3.25568 1.35581 0.18982
CHANNELS 3 Zrotation Xrotation Yrotation
						JOINT RightElbow
						{
OFFSET 0 -4.904730 0.000000
CHANNELS 3 Zrotation Xrotation Yrotation
							JOINT RightWrist
							{
OFFSET 0 -3.216210 -0.000040
CHANNELS 3 Zrotation Xrotation Yrotation
								JOINT rhand
								{
									OFFSET 0 0 0
CHANNELS 3 Zrotation Xrotation Yrotation
									JOINT RFingers
									{
OFFSET 0 -0.623530 -0.000000
CHANNELS 3 Zrotation Xrotation Yrotation
										End Site
										{
OFFSET 0 -0.502700 -0.000000
										}
									}
								}
								JOINT RThumb
								{
OFFSET 0 0.000000 0.000000
CHANNELS 3 Zrotation Xrotation Yrotation
									End Site
									{
OFFSET 0 -0.510380 0.510380
									}
								}
							}
						}
					}
				}
			}
		}
	}
}
MOTION
Frames: 14
Frame Time: .0083333
7.5173 15.8761 -3.8800 4.9778 5.9983 7.4796 0.0000 0.0000 0.0000 -25.8610 4.4434 18.3171 0.0000 0.0000 0.0000 -0.0902 -8.0073 -3.4600 0.0002 -0.0991 -0.2722 0.0000 0.0000 0.0000 7.6938 17.4407 -41.7024 -1.3194 -7.2751 20.5329 -0.9426 6.8360 -17.3289 -0.2414 3.1616 -8.7289 -5.7843 -0.5074 0.2750 0.6319 -0.7861 -3.3384 3.9242 -0.2089 -3.5239 -3.4729 -0.1945 -11.2214 0.6166 0.2279 9.6015 0.7706 0.0231 4.7123 0.0000 -0.0000 0.0000 4.0231 -22.0317 -37.659 35.5409 -45.1945 15.1959 24.2921 -34.5099 12.8772 0.0 0.0 0.0 -7.1250 0.0 0.0 -2.0744 15.9055 -1.4274 0.0000 -0.0000 0.0000 10.0208 29.024 -30.9512 -7.4553 -12.666 -0.8286 -18.9134 39.2079 39.9502 0.0 0.0 0.0 7.1250 0.0 -0.0 24.9660 70.0437 -15.2649
7.5143 15.8408 -3.6218 5.3833 5.6509 7.3974 0.0000 0.0000 0.0000 -26.1241 4.9264 19.2685 0.0000 0.0000 0.0000 -0.1084 -7.6797 -2.5286 0.0001 -0.0776 -0.2133 0.0000 0.0000 0.0000 7.4305 17.5471 -41.7670 -1.4549 -7.6240 21.5778 -0.8968 7.3349 -16.9304 -0.1659 2.6243 -7.2344 -6.0677 -0.3946 0.2353 0.6012 -0.6388 -3.2985 4.0467 -0.1300 -3.4758 -3.4060 -0.3587 -11.0568 -0.0078 0.0628 9.5163 0.5540 -0.0943 4.6634 -0.0000 0.0000 0.0000 4.208 -22.0121 -38.0103 36.8253 -46.0724 16.1141 24.7891 -35.003 13.2405 0.0 0.0 0.0 -7.1250 0.0 0.0 -1.7551 15.4545 -1.2246 -0.0000 0.0000 0.0000 10.262 29.4324 -32.9011 -7.4360 -12.6345 -0.8244 -18.8901 40.063 39.5811 0.0 0.0 0.0 7.1250 0.0 -0.0 24.4233 69.7159 -14.7436
7.5141 15.7932 -3.3636 5.2813 5.4593 7.2368 0.0000 0.0000 0.0000 -25.8237 5.3525 20.3509 0.0000 0.0000 0.0000 -0.1235 -7.2284 -1.2889 0.0094 0.6263 1.7210 0.0000 0.0000 0.0000 7.7957 17.6283 -41.6473 -1.6047 -7.9890 22.6807 -0.8366 7.7249 -16.3977 -0.2417 3.1637 -8.7349 -5.7529 -0.3170 0.2571 0.7030 -0.5260 -3.2697 3.9720 -0.0821 -3.4705 -3.7085 -0.6060 -11.1102 0.0785 -0.2298 9.4639 0.6085 -0.2429 4.6618 0.0000 0.0000 0.0000 4.5266 -21.7729 -38.4522 38.2875 -47.0219 17.1756 25.4235 -35.8608 13.5188 0.0 0.0 0.0 -7.1250 0.0 0.0 -1.3394 15.0759 -0.9452 0.0000 0.0000 0.0000 10.4203 29.7978 -34.3876 -7.4204 -12.6091 -0.821 -18.6188 40.26 39.3691 0.0 0.0 0.0 7.1250 0.0 -0.0 24.4276 69.444 -14.5999
7.5137 15.7480 -3.1061 4.9187 5.4856 6.9767 0.0000 0.0000 0.0000 -25.2082 5.6232 21.5478 0.0000 -0.0000 -0.0000 -0.1210 -6.7116 -0.3990 0.0073 -0.5510 -1.5140 0.0000 0.0000 0.0000 8.4193 17.6931 -41.2391 -1.7558 -8.3378 23.7449 -0.7064 8.5482 -15.2456 -0.1438 2.4440 -6.7344 -5.0822 -0.3346 0.4640 0.8526 -0.5427 -3.3096 3.7524 -0.1026 -3.6271 -3.9028 -0.3531 -10.6378 0.3305 0.0853 8.9225 0.7396 -0.0722 4.4103 0.0000 -0.0000 0.0000 4.7334 -21.306 -38.5477 39.7195 -47.9029 18.2309 26.1613 -36.6567 13.7677 0.0 0.0 0.0 -7.1250 0.0 0.0 -0.8541 14.7117 -0.6093 0.0000 -0.0000 0.0000 10.4254 30.3767 -34.5039 -7.4509 -12.6589 -0.8276 -17.9018 39.0573 39.4019 0.0 0.0 0.0 7.1250 0.0 -0.0 25.3250 69.2436 -15.0481
7.5112 15.7130 -2.8423 4.7859 5.3938 6.8067 0.0000 0.0000 0.0000 -24.8639 5.9212 22.5781 0.0000 0.0000 0.0000 -0.1048 -5.9645 0.4182 0.1939 -2.8358 -7.8219 0.0000 0.0000 0.0000 9.1769 17.3384 -40.9142 -1.9098 -8.6755 24.7855 -0.4924 8.3195 -12.9457 -0.0643 1.6358 -4.5002 -4.6011 -0.3239 0.4007 0.8804 -0.5113 -3.2329 3.5079 -0.1053 -3.5150 -3.8175 -0.1148 -10.4670 0.2164 0.3926 8.4762 0.7102 0.0811 4.2388 0.0000 0.0000 0.0000 4.9442 -20.8243 -38.4446 41.2224 -48.7777 19.3537 26.7563 -37.2141 14.168 0.0 0.0 0.0 -7.1250 0.0 0.0 -0.4820 14.1937 -0.3491 0.0000 0.0000 0.0000 10.415 30.7475 -34.1627 -7.4862 -12.7165 -0.8354 -17.3813 37.7688 39.4708 0.0 0.0 0.0 7.1250 0.0 -0.0 26.0383 69.1376 -15.4313
7.5051 15.7000 -2.5738 4.6427 5.2238 6.7747 0.0000 0.0000 0.0000 -24.5544 6.2143 23.3918 0.0000 -0.0000 -0.0000 -0.0736 -4.8073 1.8390 0.5367 -4.6940 -13.0378 0.0000 0.0000 0.0000 10.0666 16.8803 -40.8693 -2.0941 -9.0594 25.9813 -0.3164 6.3991 -10.3078 -0.0690 1.6943 -4.6616 -4.1830 -0.3053 0.2096 0.9515 -0.4656 -3.1947 3.3428 -0.0977 -3.3716 -3.6548 -0.0712 -10.8719 -0.2066 0.4923 8.6714 0.5613 0.1074 4.3654 -0.0000 -0.0000 0.0000 5.0684 -20.1958 -38.2487 42.6635 -49.5711 20.4443 27.2221 -37.6793 14.4885 0.0 0.0 0.0 -7.1250 0.0 0.0 -0.1944 13.7764 -0.1425 -0.0000 -0.0000 0.0000 10.3393 31.0487 -33.6507 -7.5151 -12.7638 -0.8417 -16.8839 36.6135 39.4572 0.0 0.0 0.0 7.1250 0.0 -0.0 26.5954 68.9685 -15.6788
7.4966 15.7069 -2.3088 4.2752 4.9369 6.8978 0.0000 0.0000 0.0000 -24.4658 5.2945 20.1281 0.1617 2.5909 7.1419 -0.1046 -5.7693 1.3501 0.5185 -4.6150 -12.8137 0.0000 0.0000 0.0000 10.7270 17.0425 -41.1289 -2.2997 -9.4642 27.2586 -0.2195 4.6493 -8.4548 -0.0081 0.5816 -1.5982 -3.6449 -0.2596 0.0529 1.1704 -0.3822 -3.2700 3.2633 -0.0668 -3.3680 -3.7152 0.0072 -11.5566 -0.4726 0.6749 9.1249 0.5037 0.1704 4.6164 0.0000 0.0000 0.0000 5.1516 -19.6808 -38.187 43.6125 -50.0703 21.1693 27.7248 -38.5218 15.0026 0.0 0.0 0.0 -7.1250 0.0 0.0 0.0968 13.1358 0.0723 0.0000 0.0000 0.0000 10.1789 31.0802 -34.376 -7.4688 -12.6881 -0.8315 -16.3628 36.9198 39.2404 0.0 0.0 0.0 7.1250 0.0 -0.0 26.8721 68.6193 -15.6427
7.4953 15.7154 -2.0431 4.0801 4.6113 7.0591 0.0000 0.0000 0.0000 -24.4258 4.8681 18.2805 0.4208 4.1636 11.5374 -0.0923 -5.3836 2.2079 0.3107 -3.5835 -9.9077 0.0000 0.0000 0.0000 10.8131 17.5268 -41.4278 -2.5069 -9.8505 28.4938 -0.1533 3.8498 -7.0574 -0.0759 -1.7773 4.8905 -3.1713 -0.1836 -0.2004 1.3004 -0.2605 -3.3324 3.1264 -0.0179 -3.2992 -3.8008 0.1687 -11.8231 -0.6483 0.9400 9.1899 0.4831 0.2845 4.6772 0.0000 0.0000 0.0000 5.098 -19.0851 -38.0101 44.3514 -50.4467 21.7375 28.071 -39.1313 15.6231 0.0 0.0 0.0 -7.1250 0.0 0.0 0.2677 12.3954 0.204 0.0000 0.0000 0.0000 10.0383 30.9423 -35.0892 -7.4051 -12.584 -0.8176 -16.2522 37.5804 39.2484 0.0 0.0 0.0 7.1250 0.0 -0.0 27.0110 68.5916 -15.7113
7.4917 15.7065 -1.7800 3.7416 4.3140 7.1589 0.0000 0.0000 0.0000 -24.3471 4.1347 16.8287 0.7644 5.5832 15.5798 -0.0520 -4.2313 2.8786 0.2942 -3.4880 -9.6404 0.0000 0.0000 0.0000 11.0729 18.1166 -41.4885 -2.7268 -10.2392 29.7547 -0.1067 3.4217 -5.9208 -0.3018 -3.5319 9.7634 -2.5655 -0.1320 -0.3778 1.4324 -0.1740 -3.4577 2.9193 0.0124 -3.3346 -3.8604 0.3847 -11.4315 -0.8012 1.2343 8.9539 0.4647 0.4228 4.5361 -0.0000 0.0000 0.0000 4.9803 -17.9852 -37.6548 45.3313 -50.9298 22.4957 28.6118 -39.4276 15.7773 0.0 0.0 0.0 -7.1250 0.0 0.0 0.6117 12.14 0.4694 -0.0000 0.0000 0.0000 9.8144 30.9355 -35.0382 -7.3221 -12.4481 -0.7996 -16.1152 37.6932 39.3209 0.0 0.0 0.0 7.1250 0.0 -0.0 27.2753 68.6106 -15.8851
7.4831 15.6863 -1.5325 2.8765 4.0913 7.2505 0.0000 0.0000 0.0000 -23.5647 3.4334 15.1906 1.1948 6.9359 19.5256 0.0187 -2.2329 4.3205 0.0384 -1.2652 -3.4789 0.0000 0.0000 0.0000 12.1105 18.5620 -41.4531 -2.9752 -10.6548 31.1242 -0.0826 3.1576 -5.2361 -0.3352 -3.7210 10.2930 -1.4667 -0.0977 -0.3838 1.7256 -0.1016 -3.6046 2.6028 0.0244 -3.4867 -3.9039 0.4609 -11.2414 -1.1138 1.3703 8.9718 0.3841 0.4693 4.5111 -0.0000 0.0000 0.0000 5.0147 -16.7619 -37.5602 46.4741 -51.4705 23.3863 29.4405 -39.707 15.4952 0.0 0.0 0.0 -7.1250 0.0 0.0 1.1930 12.3241 0.9111 -0.0000 0.0000 0.0000 9.509 30.789 -35.3519 -7.2656 -12.3555 -0.7875 -15.232 37.7409 38.488 0.0 0.0 0.0 7.1250 0.0 -0.0 27.0800 67.6272 -15.1715
7.4878 15.6782 -1.2848 2.1068 3.8107 7.1989 0.0000 0.0000 0.0000 -22.8831 2.9757 13.5564 1.6960 8.2020 23.3292 0.1063 0.6306 5.9666 0.0075 0.5580 1.5333 0.0000 0.0000 0.0000 13.2952 18.4697 -41.3634 -3.2674 -11.1159 32.6716 -0.0632 3.1599 -4.6678 -0.2851 -3.4339 9.4891 -0.3087 -0.0099 -0.2489 1.9990 0.0452 -3.6906 2.2310 0.0688 -3.6580 -3.6698 0.5266 -11.5286 -1.8235 1.5223 9.1831 0.1396 0.5017 4.6306 -0.0000 0.0000 0.0000 4.7374 -15.3886 -37.3108 47.5053 -51.9384 24.1956 29.8151 -39.5686 15.5018 0.0 0.0 0.0 -7.1250 0.0 0.0 1.4413 12.2565 1.1029 -0.0000 0.0000 0.0000 9.1601 30.5835 -35.4985 -7.3067 -12.4229 -0.7963 -14.4099 37.4964 37.3943 0.0 0.0 0.0 7.1250 0.0 -0.0 26.5442 66.4401 -14.1435
7.4984 15.6805 -1.0239 1.6535 3.3505 6.9396 0.0000 0.0000 0.0000 -22.5032 2.9411 12.0915 2.2268 9.3234 26.8123 0.1911 3.5907 7.7979 0.0116 0.6963 1.9135 0.0000 0.0000 0.0000 14.3731 18.0258 -41.1693 -3.6138 -11.6279 34.4281 -0.0429 3.6601 -4.1881 -0.3061 -3.5570 9.8336 0.5056 0.1243 -0.1298 2.2091 0.2473 -3.6490 1.9844 0.1475 -3.6881 -3.3514 0.7800 -11.9227 -2.4727 1.9090 9.2930 -0.0823 0.6558 4.7370 0.0000 0.0000 0.0000 4.3005 -13.9731 -36.9209 48.2826 -52.2789 24.8091 29.6604 -39.6531 15.6919 0.0 0.0 0.0 -7.1250 0.0 0.0 1.3173 12.0676 1.0131 0.0000 0.0000 0.0000 8.6401 30.3729 -34.9228 -7.3466 -12.4883 -0.8049 -14.14 37.3281 37.6771 0.0 0.0 0.0 7.1250 0.0 -0.0 27.2094 66.6053 -14.6221
7.5030 15.6837 -0.7668 1.5709 3.0060 6.6303 0.0000 0.0000 0.0000 -22.4811 2.7798 10.9111 2.7831 10.3353 30.0695 0.2638 6.3586 9.5259 0.0536 1.4945 4.1106 0.0000 0.0000 0.0000 15.0781 17.3655 -40.9980 -3.9822 -12.1367 36.2174 -0.0120 4.6716 -3.6854 -0.2749 -3.3724 9.3173 0.8433 0.2097 -0.1270 2.3081 0.3649 -3.4099 1.8926 0.1961 -3.4441 -3.2345 0.9776 -12.1987 -2.7788 2.1978 9.1232 -0.1735 0.7832 4.7342 -0.0000 -0.0000 0.0000 4.1095 -13.0134 -36.865 48.7090 -52.4614 25.1468 29.4921 -39.9849 15.4795 0.0 0.0 0.0 -7.1250 0.0 0.0 1.2291 12.3335 0.9384 -0.0000 -0.0000 0.0000 8.0799 29.8005 -34.1063 -7.3230 -12.4495 -0.7998 -14.2772 37.72 38.6805 0.0 0.0 0.0 7.1250 0.0 -0.0 28.4197 67.5022 -15.8898
7.5019 15.6998 -0.5251 1.7557 2.7511 6.3663 0.0000 0.0000 0.0000 -22.8276 2.4662 9.8107 3.3968 11.3112 33.3369 0.3223 8.6999 11.0184 0.0794 1.8180 5.0029 0.0000 0.0000 0.0000 15.3860 16.7849 -40.7394 -4.3067 -12.5577 37.7347 0.0264 5.8359 -3.2780 -0.1222 -2.2537 6.2074 0.8303 0.2628 0.5315 2.2819 0.4541 -3.5767 1.8691 0.2417 -3.9923 -2.9990 1.0682 -11.7919 -3.1403 2.2969 8.9536 -0.3186 0.8251 4.6219 0.0000 0.0000 0.0000 3.9642 -11.4951 -36.8374 48.9615 -52.568 25.3471 29.5072 -39.7705 15.125 0.0 0.0 0.0 -7.1250 0.0 0.0 1.2776 12.7297 0.9649 0.0000 0.0000 0.0000 7.7696 29.6768 -33.1775 -7.3202 -12.4451 -0.7992 -14.8293 38.0605 39.0331 0.0 0.0 0.0 7.1250 0.0 -0.0 28.3078 67.9684 -16.118
